<svg xmlns="http://www.w3.org/2000/svg" xmlns:xlink="http://www.w3.org/1999/xlink" style="display: none;">
  <symbol id="back" viewBox="0 0 24 24">
    <path d="m15.77 20.25c8.2181-8.5658-1.7446-15.649-7.7883-9.9818l1.8481 1.764h-6.8297v-6.7103l1.6741 1.6718c11.096-9.9023 23.633 5.2883 11.096 13.256z"/>
  </symbol>
  <symbol id="bookmark" viewBox="0 0 24 24">
    <path d="m15.75 7.5v10.187l-2.25-1.9755-2.25 1.9755v-10.187zm1.5-1.5h-7.5v15l3.75-3.2925 3.75 3.2925zm-9-1.5h6v-1.5h-7.5v15l1.5-1.317z"/>
  </symbol>
  <symbol id="bookmark-folder" viewBox="0 0 24 24">
    <path d="m11.25 6.75c-1.2218 0-1.7288-0.7935-3-2.25h-5.25v15h18v-12.75zm8.25 11.25h-15v-12h3.063c1.0342 1.209 1.932 2.25 3.687 2.25h3v6.75l1.875-1.9755 1.875 1.9755v-6.75h1.5z"/>
  </symbol>
  <symbol id="bookmark-folder-add" viewBox="0 0 24 24">
    <path d="m8.25 4.5c1.2712 1.4565 1.7782 2.25 3 2.25h9.75v12.75h-18v-15zm3 3.75c-1.7542 0-2.6528-1.041-3.6878-2.25h-3.0622v12h15v-9.75zm1.5 4.5h2.25v1.5h-2.25v2.25h-1.5v-2.25h-2.25v-1.5h2.25v-2.25h1.5z"/>
  </symbol>
  <symbol id="bookmark-list" viewBox="0 0 24 24">
    <path d="m19.5 4.5v13.186l-3-2.634-3 2.634v-13.186zm1.5-1.5h-9v18l4.5-3.9518 4.5 3.9518zm-10.5 0.75h-7.5v1.5h7.5zm0 3.75h-7.5v1.5h7.5zm0 3.75h-7.5v1.5h7.5zm0 3.75h-7.5v1.5h7.5z"/>
  </symbol>
  <symbol id="cancel" viewBox="0 0 24 24">
    <path d="m12.714 7.5105h-3.7135v-1.5105l-3 2.695 3 2.805v-1.5h3.7135c1.5355 0 2.7805 1.178 2.7805 2.7135s-1.2445 2.7865-2.7805 2.7865h-3.7135v2.5h3.7135c2.92 0 5.2865-2.367 5.2865-5.2865s-2.3665-5.203-5.2865-5.203z"/>
  </symbol>
  <symbol id="column-1" viewBox="0 0 24 24">
    <path d="m3 3h18v2h-18zm0 4h18v2h-18zm0 4h18v2h-18zm0 4h18v2h-18zm0 4h18v2h-18z"/>
  </symbol>
  <symbol id="column-2" viewBox="0 0 24 24">
    <path d="m13 19v2h8v-2zm-10 0v2h8v-2zm10-4v2h8v-2zm-10 0v2h8v-2zm10-4v2h8v-2zm-10 0v2h8v-2zm10-4v2h8v-2zm-10 0v2h8v-2zm10-4v2h8v-2zm-10 0v2h8v-2z"/>
  </symbol>
  <symbol id="column-3" viewBox="0 0 24 24">
    <path d="m16.334 19v2h4.666v-2zm-6.6721 0v2h4.666v-2zm-6.6619 0v2h4.666v-2zm13.334-4v2h4.666v-2zm-6.6721 0v2h4.666v-2zm-6.6619 0v2h4.666v-2zm13.334-4v2h4.666v-2zm-6.6721 0v2h4.666v-2zm-6.6619 0v2h4.666v-2zm13.334-4v2h4.666v-2zm-6.6721 0v2h4.666v-2zm-6.6619 0v2h4.666v-2zm13.334-4v2h4.666v-2zm-6.6721 0v2h4.666v-2zm-6.6619 0v2h4.666v-2z"/>
  </symbol>
  <symbol id="copy" viewBox="0 0 24 24">
    <path d="m15 9v-3h-9v9h3v3h9v-9zm-6 5h-2v-7h7v2h-5zm8 3h-7v-7h7zm-1.5-4h-1.5v-1.5h-1v1.5h-1.5v1h1.5v1.5h1v-1.5h1.5z"/>
  </symbol>
  <symbol id="delete" viewBox="0 0 24 24">
    <path d="m18 16.535-4.6008-4.5562 4.5547-4.5958-1.4187-1.3832-4.5537 4.5753-4.5968-4.5753-1.3847 1.4302 4.5788 4.5612-4.5788 4.6008 1.4302 1.4077 4.5647-4.6048 4.5988 4.5587z"/>
  </symbol>
  <symbol id="down" viewBox="0 0 24 24">
    <path d="M 6,9.665 7.4145,8.25 12.002,12.9195 16.5855,8.25 18,9.665 12.002,15.75 Z"/>
  </symbol>
  <symbol id="export" viewBox="0 0 24 24">
    <path d="m9 11.25h-4.5v7.5h15v-7.5h-4.5v-1.5h6v10.5h-18v-10.5h6zm-0.75-3 3.75-4.5 3.75 4.5h-3v8.25h-1.5v-8.25z"/>
  </symbol>
  <symbol id="filter" viewBox="0 0 24 24">
    <path d="m4.5 4.5c1.8595 3.3554 6 9.8205 6 9.8205v4.4295l2.25 2.25h0.75v-6.6795l6-9.8205-0.69722-1.5h-13.552m12.359 1.5-2.2357 3.75h-6.747l-2.2358-3.75z"/>
  </symbol>
  <symbol id="help" viewBox="0 0 24 24">
    <path d="m12.391 21h-2.897v-2.5004h2.897zm5.6095-13.497q0 1.1613-0.49704 2.0738-0.49704 0.9006-1.3065 1.5998-0.7953 0.67544-1.832 1.268-1.0367 0.59249-2.2012 1.1495v2.6663h-2.5421v-3.6143q0.9231-0.43845 1.9882-0.95985 1.0793-0.52139 1.7609-1.0547 0.82365-0.61619 1.2781-1.268 0.45444-0.66359 0.45444-1.6827 0-1.3391-1.0935-1.9908-1.0793-0.66359-2.7977-0.66359-1.5338 0-2.9113 0.4029-1.3634 0.4029-2.1586 0.81765h-0.14201v-2.4174q0.99405-0.31995 2.5136-0.56879 1.5338-0.26064 2.897-0.26064 3.0533 0 4.8142 1.2442 1.7752 1.2324 1.7752 3.2588z"/>
  </symbol>
  <symbol id="help-read" viewBox="0 0 24 24">
    <path d="m11.522 4.5c3.117 0 1.9785 4.5 1.9785 4.5s4.5-1.2375 4.5 1.8428v8.6572h-12v-15zm0.62025-1.5h-7.6418v18h15v-10.79c0-1.7932-4.986-7.2105-7.3582-7.2105zm3.6082 9.75h-7.5v-0.75h7.5zm0 1.5h-7.5v0.75h7.5zm0 2.25h-7.5v0.75h7.5z"/>
  </symbol>
  <symbol id="help-topic" viewBox="0 0 24 24">
    <path d="m10.5 16.5c0-0.828 0.672-1.5 1.5-1.5s1.5 0.672 1.5 1.5-0.672 1.5-1.5 1.5-1.5-0.672-1.5-1.5zm0-4.5c0-0.828 0.672-1.5 1.5-1.5s1.5 0.672 1.5 1.5-0.672 1.5-1.5 1.5-1.5-0.672-1.5-1.5zm0-4.5c0-0.828 0.672-1.5 1.5-1.5s1.5 0.672 1.5 1.5-0.672 1.5-1.5 1.5-1.5-0.672-1.5-1.5z"/>
  </symbol>
  <symbol id="history" viewBox="0 0 24 24">
    <path d="m16.885 8.3392c0.7185-0.85725 1.1152-1.9328 1.1152-3.027v-2.3122h-12v2.3122c0 1.0942 0.396 2.169 1.1152 3.0262l2.3145 2.76c0.42525 0.50775 0.42825 1.2188 0.00675 1.7295l-2.3475 2.8455c-0.702 0.852-1.089 1.9162-1.089 2.9962v2.3302h12v-2.3302c0-1.08-0.38775-2.1435-1.0898-2.9955l-2.3475-2.8455c-0.4215-0.51075-0.4185-1.2218 0.00675-1.7295zm-3.4792 5.4428 2.3475 2.8455c0.489 0.594 0.747 1.2945 0.747 2.1225h-0.79575c-0.59475-1.5128-3.7042-3.75-3.7042-3.75s-3.1102 2.2372-3.705 3.75h-0.795c0-0.828 0.25725-1.5292 0.747-2.1218l2.3468-2.8448c0.87525-1.0605 0.86925-2.5942-0.01425-3.648l-2.3145-2.7608c-0.495-0.58875-0.765-1.302-0.765-2.1255h9c0 0.82575-0.27225 1.5375-0.765 2.1255l-2.3152 2.76c-0.88275 1.0538-0.88875 2.5882-0.01425 3.6472z"/>
  </symbol>
  <symbol id="import" viewBox="0 0 24 24">
    <path d="m9 11.25h-4.5v7.5h15v-7.5h-4.5v-1.5h6v10.5h-18v-10.5h6zm3.75 1.5h3l-3.75 4.5-3.75-4.5h3v-9h1.5z"/>
  </symbol>
  <symbol id="menu" viewBox="0 0 24 24">
    <path d="m16.5 13.5c-0.828 0-1.5-0.672-1.5-1.5s0.672-1.5 1.5-1.5 1.5 0.672 1.5 1.5-0.672 1.5-1.5 1.5zm-4.5 0c-0.828 0-1.5-0.672-1.5-1.5s0.672-1.5 1.5-1.5 1.5 0.672 1.5 1.5-0.672 1.5-1.5 1.5zm-4.5 0c-0.828 0-1.5-0.672-1.5-1.5s0.672-1.5 1.5-1.5 1.5 0.672 1.5 1.5-0.672 1.5-1.5 1.5z"/>
  </symbol>
  <symbol id="move" viewBox="0 0 24 24">
    <path d="m12.754 11.752 0.465-1.247 1.499 3.134-3.155 1.3895 0.447-1.239s-4.1355-2.1025-3.962-5.79c1.358 2.9695 4.706 3.7525 4.706 3.7525zm3.746-4.752v-1h-10.5v10.5h1v-9.5zm-7.3165 1c0.2205 0.3785 0.479 0.711 0.7605 1h7.056v8h-8v-4.274c-0.3565-0.376-0.7-0.8075-1-1.288v6.562h10v-10z"/>
  </symbol>
  <symbol id="move-copy" viewBox="0 0 24 24">
    <path d="m15 9v-3h-9v9h3v3h9v-9zm-6 5h-2v-7h7v2h-5zm8 3h-7v-7h7z"/>
  </symbol>
  <symbol id="navigator" viewBox="0 0 24 24">
    <path d="m18.439 5.5628-3.8955 10.405-1.3072-5.2042-5.199-1.2998zm2.5612-2.5628-18 6.75 9 2.25 2.2605 9z"/>
  </symbol>
  <symbol id="navigator-book" viewBox="0 0 24 24">
    <path d="m12 6.5302c-2.2035-1.3725-5.562-1.9252-9-2.0302v13.286c2.9528 0.09 5.8462 0.51075 8.0002 1.4962 0.6345 0.291 1.3628 0.291 2.0002 0 2.154-0.9855 5.0468-1.4062 7.9995-1.4962v-13.286c-3.438 0.105-6.7965 0.65775-9 2.0302zm-7.5 9.828v-10.278c3.8678 0.29175 5.6452 1.0972 6.75 1.7505v9.876c-1.1438-0.4095-3.537-1.1288-6.75-1.3485zm15 0c-3.2122 0.21975-5.6062 0.939-6.75 1.3492v-9.8782c1.0898-0.64575 2.8725-1.4565 6.75-1.749z"/>
  </symbol>
  <symbol id="navigator-chapter" viewBox="0 0 24 24">
    <path d="m12.75 7.5c2.6018 0 1.5 3.75 1.5 3.75s3.75-1.1955 3.75 1.5v6.75h-9v-12zm0.62025-1.5h-5.8702v15h12v-8.8815c0-1.794-3.7582-6.1185-6.1298-6.1185zm0.12975-1.5-2.25-1.5h-6.75v16.5h1.5v-15z"/>
  </symbol>
  <symbol id="next" viewBox="0 0 24 24">
    <path d="M 9.665,18 8.25,16.5855 12.9195,11.998 8.25,7.4145 9.665,6 15.75,11.998 Z"/>
  </symbol>
  <symbol id="prev" viewBox="0 0 24 24">
    <path d="m14.335 6 1.415 1.4145-4.6695 4.5875 4.6695 4.5835-1.415 1.4145-6.085-5.998z"/>
  </symbol>
  <symbol id="rename" viewBox="0 0 24 24">
    <path d="m13.039 9.5305 1.4305 1.431-5.3995 5.399-1.792 0.3615 0.362-1.7925zm0-1.4145-6.32 6.32-0.719 3.564 3.5635-0.719 6.321-6.32zm3.5525 2.1385 1.4085-1.41-2.8455-2.8445-1.408 1.4085z"/>
  </symbol>
  <symbol id="result" viewBox="0 0 24 24">
    <path d="m3 19h18v2h-18zm0-4h18v2h-18zm9-4h9v2h-9zm-9 0h7v2h-7zm0-4h18v2h-18zm9-4h9v2h-9zm-9 0h7v2h-7z"/>
  </symbol>
  <symbol id="search" viewBox="0 0 24 24">
    <path d="m18.879 21-5.5402-5.5402c-1.041 0.6555-2.268 1.0402-3.5888 1.0402-3.7282 0-6.75-3.0218-6.75-6.75s3.0218-6.75 6.75-6.75 6.75 3.0218 6.75 6.75c0 1.3208-0.3855 2.5485-1.0402 3.5888l5.5402 5.5402zm-9.129-6c2.8942 0 5.25-2.355 5.25-5.25s-2.3558-5.25-5.25-5.25-5.25 2.355-5.25 5.25 2.3558 5.25 5.25 5.25z"/>
  </symbol>
  <symbol id="search-lookup" viewBox="0 0 24 24">
    <path d="m18.879 21-5.5402-5.5402c-1.041 0.6555-2.268 1.0402-3.5888 1.0402-3.7282 0-6.75-3.0218-6.75-6.75s3.0218-6.75 6.75-6.75 6.75 3.0218 6.75 6.75c0 1.3208-0.3855 2.5485-1.0402 3.5888l5.5402 5.5402zm-9.129-6c2.8942 0 5.25-2.355 5.25-5.25s-2.3558-5.25-5.25-5.25-5.25 2.355-5.25 5.25 2.3558 5.25 5.25 5.25zm-2.25-6c0.414 0 0.75 0.336 0.75 0.75s-0.336 0.75-0.75 0.75-0.75-0.336-0.75-0.75 0.336-0.75 0.75-0.75zm2.25 0c0.414 0 0.75 0.336 0.75 0.75s-0.336 0.75-0.75 0.75-0.75-0.336-0.75-0.75 0.336-0.75 0.75-0.75zm2.25 0c0.414 0 0.75 0.336 0.75 0.75s-0.336 0.75-0.75 0.75-0.75-0.336-0.75-0.75 0.336-0.75 0.75-0.75z"/>
  </symbol>
  <symbol id="setting" viewBox="0 0 24 24">
    <path d="m21 13.64v-3.2805c-1.611-0.5745-2.0445-0.6015-2.2702-1.1468-0.22725-0.54675 0.06225-0.87675 0.79425-2.4172l-2.3198-2.3198c-1.5195 0.72225-1.866 1.023-2.418 0.79425-0.54525-0.2265-0.576-0.66675-1.1452-2.2702h-3.2812c-0.573 1.608-0.6 2.0438-1.1468 2.2702-0.564 0.23475-0.90225-0.075-2.4172-0.79425l-2.3198 2.3198c0.73275 1.5412 1.0215 1.8698 0.79425 2.418-0.2265 0.54525-0.66075 0.573-2.2702 1.146v3.2812c1.6042 0.57 2.0438 0.6 2.2702 1.146 0.228 0.5505-0.06075 0.87525-0.79425 2.4172l2.3198 2.3198c1.4992-0.7125 1.8525-1.0298 2.4172-0.79425 0.546 0.2265 0.573 0.66 1.1468 2.2702h3.2805c0.5685-1.5982 0.59925-2.0422 1.1528-2.2732 0.55875-0.231 0.8895 0.07425 2.4112 0.7965l2.3198-2.3198c-0.73125-1.5375-1.0215-1.869-0.79425-2.4172 0.225-0.5445 0.66-0.57225 2.2702-1.146zm-3.6562 0.573c-0.43275 1.0455-0.051 1.8435 0.366 2.6835l-0.813 0.813c-0.81975-0.40725-1.6208-0.807-2.6798-0.3675-1.047 0.43575-1.3425 1.2698-1.641 2.1578h-1.1505c-0.2985-0.88875-0.59325-1.7228-1.6372-2.1562-1.0642-0.441-1.8802-0.03375-2.6842 0.366l-0.81225-0.813c0.41775-0.8385 0.7995-1.635 0.36525-2.685-0.43425-1.0432-1.2682-1.338-2.157-1.6365v-1.1498c0.88875-0.2985 1.7228-0.59325 2.1562-1.638 0.4335-1.0455 0.051-1.8442-0.366-2.6842l0.813-0.813c0.8115 0.4035 1.6215 0.80775 2.685 0.366 1.044-0.43275 1.3388-1.2675 1.6372-2.1562h1.1505c0.2985 0.88875 0.594 1.7228 1.638 2.1562 1.0642 0.441 1.8795 0.03375 2.6842-0.366l0.813 0.813c-0.417 0.84075-0.79875 1.6402-0.366 2.685 0.43275 1.0432 1.2668 1.338 2.1562 1.6372v1.1505c-0.891 0.2985-1.7265 0.59325-2.1578 1.6372zm-5.3438-4.4632c1.2405 0 2.25 1.0095 2.25 2.25s-1.0095 2.25-2.25 2.25-2.25-1.0095-2.25-2.25 1.0095-2.25 2.25-2.25zm0-1.5c-2.0715 0-3.75 1.6785-3.75 3.75s1.6785 3.75 3.75 3.75 3.75-1.6785 3.75-3.75-1.6785-3.75-3.75-3.75z"/>
  </symbol>
  <symbol id="sort-ascend" viewBox="0 0 24 24">
    <path d="m7.5 5.25-4.5 6h3v7.5h3v-7.5h3zm12 10.5h-6v-1.5h6zm1.5 1.5h-7.5v1.5h7.5zm-3-6h-4.5v1.5h4.5zm-1.5-3h-3v1.5h3zm-1.5-3h-1.5v1.5h1.5z"/>
  </symbol>
  <symbol id="sort-invert" viewBox="0 0 24 24">
    <path d="m9 10.5v3h3l-4.5 5.25-4.5-5.25h3v-3h-3l4.5-5.25 4.5 5.25zm12 3.75h-7.5v1.5h7.5zm0 4.5h-7.5v-1.5h7.5zm0-6h-7.5v-1.5h7.5zm0-3h-7.5v-1.5h7.5zm0-3h-7.5v-1.5h7.5z"/>
  </symbol>
  <symbol id="strong" viewBox="0 0 24 24">
    <path d="m6.4028 17.046q0.21323 0 0.40277 0.05326 0.094771 1.8506 0.93586 2.9024 0.60415 0.43935 1.3386 0.50592l0.4383 0.01331q0.73446 0.03994 1.4926-0.23965 0.77003-0.2929 1.1017-0.67899 0.4383-0.50592 0.85291-1.5044 0.17769-0.42604 0.17769-1.1583 0-0.43935-0.04739-0.73225-0.09477-0.50592-0.35538-1.2648-0.24877-0.7722-0.65154-1.7042l-1.1372-2.676q-0.29615-0.69231-0.61599-1.8506-0.14216-0.53255-0.14216-1.3047 0-1.0518 0.39092-1.8773 0.39092-0.82546 1.1254-1.4379 0.73446-0.62574 1.2912-0.82546 0.77003-0.26636 1.6585-0.26636 1.6466 0 3.3406 0.78556-0.03554 0.7722-0.17769 1.3713-0.20138 0.85208-0.41461 1.4512-0.22508 0-0.39092-0.039942-0.01184-0.71894-0.2843-1.7308-0.154-0.57249-0.67523-0.98521t-1.2202-0.41273q-1.3268 0-2.1204 0.89198-0.79366 0.89198-0.79366 2.3965 0 0.82546 0.21323 1.6109 0.21323 0.7722 1.2438 3.0887 0.50938 1.1317 0.77003 1.9039 0.05923 0.14645 0.33169 1.1183 0.2843 0.97193 0.308 1.1849 0.05923 0.37278 0.05923 0.85208 0 1.8905-1.1965 3.0089-1.6229 1.5044-4.2765 1.5044-1.6821 0-3.3761-0.59912v-0.07988q0-0.25296 0.13031-0.97193 0.047385-0.26627 0.18953-1.6243 0.023692-0.25296 0.082921-0.679z"/>
  </symbol>
  <symbol id="strong-def" viewBox="0 0 24 24">
    <path d="m3 19h18v2h-18zm0-4h18v2h-18zm0-4h9v2h-9zm0-4h9v2h-9zm0-4h9v2h-9z"/>
  </symbol>
  <symbol id="strong-lookup" viewBox="0 0 24 24">
    <path d="m12.75 8.9944h-1.5536l-0.42924 1.5151h1.437v0.54399h-1.6003l-0.48523 1.6964h-0.60187l0.48523-1.6964h-1.2597l-0.48523 1.6964h-0.60187l0.48523-1.6964h-1.3904v-0.54399h1.5536l0.42924-1.5151h-1.437v-0.54399h1.6003l0.48989-1.7005h0.60187l-0.48989 1.7005h1.2597l0.48989-1.7005h0.60187l-0.48989 1.7005h1.3904zm-2.1416-0.00806h-1.2784l-0.43857 1.5312h1.2784zm8.2702 12.014-5.5402-5.5402c-1.041 0.6555-2.268 1.0402-3.5888 1.0402-3.7282 0-6.7497-3.0218-6.7497-6.75 0-3.7282 3.0214-6.7499 6.7497-6.7499s6.75 3.0216 6.75 6.7499c0 1.3208-0.3855 2.5485-1.0402 3.5888l5.5402 5.5402zm-9.129-6c2.8942 0 5.25-2.355 5.25-5.25 0-2.895-2.3558-5.25-5.25-5.25s-5.25 2.355-5.25 5.25c0 2.895 2.3558 5.25 5.25 5.25z"/>
  </symbol>
  <symbol id="strong-mode" viewBox="0 0 24 24">
    <path d="m14.098 9.9749h-3.3363l-0.87375 4.119h3.3628zm5.4016-1.4554-0.3045 1.4554h-3.4554l-0.83408 4.119h3.7202l-0.35746 1.4554h-3.6408l-1.165 5.4508h-1.6682l1.1386-5.4508h-3.3098l-1.1121 5.4508h-1.6549l1.1121-5.4508h-3.4687l0.26478-1.4554h3.5084l0.8076-4.119h-3.6673l0.27802-1.4554h3.6673l1.1121-5.5195h1.6682l-1.1121 5.5195h3.3363l1.1386-5.5195h1.6284l-1.1121 5.5195z"/>
  </symbol>
  <symbol id="strong-verse" viewBox="0 0 24 24">
    <path d="m16 19h5v2h-5zm-13 0h11v2h-11zm13-4h5v2h-5zm-13 0h11v2h-11zm13-4h5v2h-5zm0-4h5v2h-5zm-13 0h11v2h-11zm13-4h5v2h-5zm-13 0h11v2h-11z"/>
  </symbol>
  <symbol id="up" viewBox="0 0 24 24">
    <path d="m6 14.335 1.4145 1.415 4.5875-4.6695 4.5835 4.6695 1.4145-1.415-5.998-6.085z"/>
  </symbol>
</svg>
